<?xml version="1.0" standalone="no"?>
<!DOCTYPE svg PUBLIC "-//W3C//DTD SVG 20010904//EN"
 "http://www.w3.org/TR/2001/REC-SVG-20010904/DTD/svg10.dtd">
<svg version="1.0" xmlns="http://www.w3.org/2000/svg"
 width="659.000000pt" height="224.000000pt" viewBox="0 0 659.000000 224.000000"
 preserveAspectRatio="xMidYMid meet">
<metadata>
Created by potrace 1.15, written by Peter Selinger 2001-2017
</metadata>
<g transform="translate(0.000000,224.000000) scale(0.100000,-0.100000)"
fill="#000000" stroke="none">
<path d="M1205 2212 c-104 -98 -257 -319 -345 -497 -77 -157 -125 -294 -165
-466 l-27 -117 -51 -43 c-140 -120 -313 -326 -397 -474 -120 -212 -219 -449
-220 -523 0 -31 56 -50 195 -68 22 -3 55 -9 73 -14 33 -9 497 -6 542 3 14 3
41 8 60 11 63 11 140 29 140 33 0 2 -26 36 -58 76 -82 101 -117 160 -146 248
-50 150 -52 276 -7 457 19 74 38 132 43 132 2 0 3 -66 4 -148 1 -161 13 -227
64 -338 51 -113 144 -225 246 -295 119 -81 315 -144 559 -177 64 -9 477 -8
530 1 65 11 96 17 172 32 40 8 75 15 78 15 27 0 -37 199 -119 375 -57 122
-117 220 -209 344 -69 92 -232 271 -247 271 -4 0 -16 -17 -25 -37 -39 -83
-185 -238 -291 -310 -57 -39 -189 -109 -149 -79 226 168 323 347 323 596 1
166 -27 267 -134 485 -64 131 -165 292 -239 381 -81 97 -138 154 -154 154 -9
0 -29 -13 -46 -28z m81 -309 c90 -116 204 -330 259 -483 61 -170 0 -332 -155
-408 -47 -23 -68 -27 -141 -27 -65 0 -95 5 -127 20 -23 11 -42 23 -42 28 0 4
-5 7 -11 7 -7 0 -47 35 -90 77 -61 59 -79 83 -79 104 0 25 56 211 79 264 33
76 90 191 124 250 48 83 135 205 147 205 4 0 21 -17 36 -37z"/>
<path d="M4700 1360 l0 -410 95 0 95 0 0 41 0 41 25 -30 c81 -97 259 -96 341
1 15 18 39 57 53 87 22 48 26 68 26 155 0 87 -4 107 -26 155 -34 73 -70 114
-122 139 -84 40 -208 21 -272 -43 l-25 -25 0 149 0 150 -95 0 -95 0 0 -410z
m379 34 c34 -24 51 -74 51 -149 0 -113 -37 -165 -116 -165 -77 0 -115 55 -115
165 0 110 38 165 115 165 23 0 52 -7 65 -16z"/>
<path d="M2880 1746 c-181 -50 -281 -213 -267 -436 8 -144 61 -249 160 -316
65 -45 104 -55 223 -61 209 -10 343 71 406 244 30 82 30 254 0 336 -42 117
-126 197 -241 231 -65 19 -215 20 -281 2z m220 -151 c145 -75 145 -425 0 -500
-37 -19 -123 -19 -159 0 -71 36 -111 127 -111 250 0 168 68 265 188 265 29 0
66 -7 82 -15z"/>
<path d="M3842 1539 c-23 -12 -51 -33 -62 -46 l-20 -26 0 37 0 36 -95 0 -95 0
0 -295 0 -295 94 0 94 0 4 183 c3 140 8 191 21 220 30 68 117 83 148 25 9 -15
14 -90 17 -225 l5 -203 92 0 93 0 4 183 c3 151 7 189 23 221 31 65 104 80 145
31 12 -14 16 -62 18 -227 l4 -208 95 0 94 0 -3 238 -3 237 -27 47 c-35 59 -91
88 -171 88 -70 0 -112 -16 -164 -64 l-39 -35 -17 29 c-39 66 -170 91 -255 49z"/>
<path d="M5760 1544 c-19 -8 -50 -29 -67 -46 l-33 -32 0 37 0 37 -95 0 -95 0
0 -295 0 -295 94 0 94 0 4 173 c3 150 6 176 23 206 40 67 99 88 193 67 l32 -8
0 86 0 86 -57 0 c-32 -1 -74 -8 -93 -16z"/>
<path d="M6147 1543 c-66 -23 -139 -90 -167 -155 -33 -75 -34 -211 -1 -284 28
-63 80 -116 146 -146 45 -21 63 -23 195 -22 93 1 163 7 195 16 l50 14 3 77 c2
42 0 77 -4 77 -4 0 -37 -12 -72 -26 -172 -69 -302 -42 -330 67 l-10 39 220 0
221 0 -5 83 c-5 95 -26 142 -85 198 -63 61 -96 73 -208 76 -74 2 -113 -2 -148
-14z m194 -123 c21 -12 49 -60 49 -85 0 -13 -18 -15 -115 -15 -74 0 -115 4
-115 10 0 21 30 69 52 84 25 18 100 21 129 6z"/>
<path d="M3640 485 l0 -135 35 0 35 0 0 58 c0 65 9 85 36 80 16 -3 19 -14 22
-71 l3 -67 34 0 35 0 0 83 c0 104 -14 123 -85 115 l-45 -6 0 39 c0 38 -1 39
-35 39 l-35 0 0 -135z"/>
<path d="M4270 581 l0 -39 -44 5 c-57 7 -83 -9 -97 -57 -14 -47 1 -114 29
-129 10 -5 55 -9 100 -9 l82 0 0 134 0 134 -35 0 c-34 0 -35 -1 -35 -39z"/>
<path d="M5740 485 l0 -135 35 0 35 0 0 135 0 135 -35 0 -35 0 0 -135z"/>
<path d="M5860 485 l0 -135 35 0 35 0 0 135 0 135 -35 0 -35 0 0 -135z"/>
<path d="M3391 584 c-43 -55 -17 -107 64 -128 34 -8 51 -18 53 -30 3 -16 -2
-17 -45 -13 -26 2 -58 8 -70 12 -21 7 -23 4 -23 -28 0 -41 13 -47 108 -47 54
0 67 4 87 25 47 46 24 116 -42 131 -93 20 -99 39 -12 38 l60 -1 -3 31 -3 31
-76 3 c-73 3 -78 1 -98 -24z"/>
<path d="M5090 598 c0 -7 13 -65 28 -128 l27 -115 47 -3 46 -3 17 80 c10 44
21 78 25 76 4 -3 10 -22 14 -42 3 -21 11 -55 16 -75 11 -37 13 -38 55 -38 33
0 45 4 49 18 7 23 56 233 56 238 0 2 -17 4 -38 4 l-39 0 -18 -82 -18 -83 -20
83 -19 82 -39 0 c-36 0 -39 -2 -48 -37 -5 -21 -13 -55 -16 -75 -8 -44 -20 -42
-29 4 -20 100 -25 108 -61 108 -22 0 -35 -5 -35 -12z"/>
<path d="M6220 575 c0 -16 -6 -25 -15 -25 -9 0 -15 -9 -15 -25 0 -15 6 -25 14
-25 10 0 15 -18 18 -66 5 -76 12 -84 81 -84 42 0 47 2 47 23 0 16 -9 26 -30
34 -27 10 -30 16 -30 52 0 40 1 41 35 41 31 0 35 3 35 25 0 22 -4 25 -35 25
-31 0 -35 3 -35 25 0 22 -4 25 -35 25 -31 0 -35 -3 -35 -25z"/>
<path d="M3900 521 l0 -30 54 6 c34 4 56 2 60 -6 5 -8 -8 -11 -43 -11 -79 0
-115 -51 -76 -107 14 -20 24 -22 105 -22 l90 1 0 73 c0 58 -4 77 -21 99 -19
24 -26 26 -95 26 l-74 0 0 -29z"/>
<path d="M4409 521 c-23 -23 -29 -38 -29 -71 0 -33 6 -48 29 -71 25 -25 37
-29 83 -29 64 0 92 17 108 65 9 26 9 44 0 70 -16 48 -44 65 -108 65 -46 0 -58
-4 -83 -29z"/>
<path d="M4630 543 c0 -5 11 -48 23 -98 l23 -90 42 -3 c38 -3 42 -1 48 25 21
94 20 93 34 31 l13 -58 42 0 41 0 22 93 c12 50 22 95 22 100 0 4 -15 7 -34 7
-34 0 -35 -1 -47 -57 l-13 -58 -14 58 c-14 55 -15 57 -46 57 -32 0 -33 -2 -46
-57 -8 -35 -15 -50 -18 -38 -17 87 -21 95 -57 95 -19 0 -35 -3 -35 -7z"/>
<path d="M5500 521 l0 -30 54 6 c34 4 56 2 60 -6 5 -8 -8 -11 -43 -11 -79 0
-115 -51 -76 -107 14 -20 24 -22 105 -22 l90 1 0 73 c0 58 -4 77 -21 99 -19
24 -26 26 -95 26 l-74 0 0 -29z"/>
<path d="M5989 521 c-23 -23 -29 -38 -29 -71 0 -33 6 -48 29 -71 27 -27 35
-29 105 -29 l76 0 0 28 c0 29 0 29 -61 28 -41 -1 -63 3 -66 12 -4 9 14 12 66
12 l71 0 0 29 c0 17 -11 42 -26 60 -23 28 -32 31 -81 31 -47 0 -59 -4 -84 -29z"/>
</g>
</svg>
